<svg width="32" height="36" viewBox="0 0 32 36" fill="none" xmlns="http://www.w3.org/2000/svg">
<path d="M31.5 18.7392C31.5 26.8779 24.5825 33.5146 16 33.5146C7.41749 33.5146 0.5 26.8779 0.5 18.7392C0.5 10.6006 7.41749 3.96387 16 3.96387C24.5825 3.96387 31.5 10.6006 31.5 18.7392Z" fill="white" stroke="#343434"/>
<path d="M29.7855 18.7389C29.7855 25.9974 23.6201 31.8933 16 31.8933C8.37986 31.8933 2.21451 25.9974 2.21451 18.7389C2.21451 11.4804 8.37986 5.58457 16 5.58457C23.6201 5.58457 29.7855 11.4804 29.7855 18.7389Z" fill="white" stroke="#343434" stroke-width="0.3"/>
<path d="M7.22582 4.94203L5.67743 1H14.9678V28.1014L28.9032 28.5942L26.8387 35H5.67743L7.22582 31.5507V4.94203Z" fill="white" stroke="#343434" stroke-width="0.3"/>
</svg>
